Coordinates
version=1
nRows=13
nColumns=26
inDegrees=yes

Units are S.I. units (second, meters, Newtons, ...)
If the header above contains a line with 'inDegrees', this indicates whether rotational values are in degrees (yes) or radians (no).

endheader
time	pelvis_tilt	pelvis_list	pelvis_rotation	pelvis_tx	pelvis_ty	pelvis_tz	hip_flexion_r	hip_adduction_r	hip_rotation_r	knee_angle_r	knee_angle_r_beta	ankle_angle_r	subtalar_angle_r	mtp_angle_r	hip_flexion_l	hip_adduction_l	hip_rotation_l	knee_angle_l	knee_angle_l_beta	ankle_angle_l	subtalar_angle_l	mtp_angle_l	lumbar_extension	lumbar_bending	lumbar_rotation
      1.08000000	     -2.26778329	     -9.08174364	     -7.70214878	      2.51137640	      0.88180012	     -0.10964990	     26.95079233	     14.63639701	     -1.11011123	     34.68568786	      0.60537946	      5.58813394	     -7.42743579	      0.00000000	    -14.36794950	     -6.24931293	     -0.75122671	     70.10498857	      1.22356287	    -26.80746714	    -15.74176539	      0.00000000	    -15.88515150	      8.39347597	     -8.30344138
      1.08500000	     -1.68152277	     -9.55501551	     -8.13297950	      2.52309115	      0.87844461	     -0.10908419	     26.75864430	     15.08041287	     -1.77675662	     37.10578126	      0.64761805	      6.89214392	     -7.64192640	      0.00000000	    -13.74469501	     -6.84194789	     -1.54700913	     73.09836031	      1.27580707	    -26.13985622	    -16.64928889	      0.00000000	    -17.03104667	      8.80638755	     -7.08767756
      1.09000000	     -1.59790953	     -9.89081944	     -8.80294085	      2.53498253	      0.87549225	     -0.10867920	     26.84371484	     15.43181356	     -2.14456420	     39.18892583	      0.68397579	      7.95194558	     -7.33186244	      0.00000000	    -12.57002449	     -7.25066595	     -2.31746580	     76.01325864	      1.32668164	    -25.15203511	    -17.23455125	      0.00000000	    -17.59181326	      9.21512688	     -5.92979287
      1.09500000	     -0.78839267	    -10.78168146	     -8.88603027	      2.54872016	      0.87275889	     -0.10689232	     25.46381514	     16.24271849	     -2.76347632	     40.40868993	      0.70526469	      9.54071569	     -7.25657914	      0.00000000	    -12.55965843	     -8.64525868	     -3.06607648	     78.33077314	      1.36712990	    -24.19658979	    -17.60869266	      0.00000000	    -18.59298710	      9.87368699	     -5.22479739
      1.10000000	     -0.43130104	    -11.43686199	     -9.56808413	      2.56080673	      0.87044655	     -0.10668136	     24.65258341	     16.81065092	     -2.83505516	     41.69533365	      0.72772085	     11.58472366	     -5.38827369	      0.00000000	    -11.83993735	     -9.37062395	     -3.91955783	     80.94321171	      1.41272555	    -22.63054070	    -17.56594057	      0.00000000	    -19.44791604	     10.54926084	     -3.71107230
      1.10500000	     -0.41641486	    -11.92326808	    -10.13078756	      2.57296461	      0.86826449	     -0.10623838	     23.97613468	     17.44080203	     -2.40705568	     42.47330062	      0.74129894	     12.87228116	     -5.47013843	      0.00000000	    -10.56487623	     -9.97401386	     -4.36908201	     83.55641505	      1.45833455	    -21.39024798	    -17.89699256	      0.00000000	    -19.86382018	     11.08661606	     -2.61481652
      1.11000000	     -0.80997098	    -12.01616024	    -10.73491287	      2.58521114	      0.86595606	     -0.10585473	     23.81814280	     17.58246135	     -2.32941510	     43.40945244	      0.75763787	     14.00939135	     -4.90316658	      0.00000000	     -8.73477133	    -10.10645224	     -4.51204115	     86.04019579	      1.50168471	    -19.75457519	    -17.95813355	      0.00000000	    -19.69477913	     11.31988479	     -1.54051841
      1.11500000	     -1.25571913	    -12.15938080	    -11.12572064	      2.59740837	      0.86369831	     -0.10561244	     23.64897013	     17.94346207	     -1.76253933	     44.10835568	      0.76983603	     15.05741870	     -5.09065961	      0.00000000	     -6.67314824	    -10.44118870	     -4.45608641	     88.56159012	      1.54569134	    -18.55851204	    -18.11176635	      0.00000000	    -19.45133675	     11.66442780	     -0.56207907
      1.12000000	     -1.59053630	    -12.15707861	    -11.36205440	      2.60963747	      0.86177849	     -0.10503837	     23.47097592	     18.12299388	     -1.32430387	     44.92689130	      0.78412218	     15.84730949	     -5.39922496	      0.00000000	     -4.62956383	    -10.65176711	     -4.19948586	     90.88972328	      1.58632493	    -17.30460666	    -18.09131198	      0.00000000	    -19.23714086	     11.73924484	      0.23939858
      1.12500000	     -1.92214435	    -12.03493417	    -11.46186917	      2.62184608	      0.85987040	     -0.10465821	     23.24348766	     18.15609993	     -0.84308339	     45.60120926	      0.79589124	     16.83768595	     -5.86128487	      0.00000000	     -2.54069726	    -10.67391307	     -3.82546380	     93.13216076	      1.62546284	    -15.98149691	    -18.17368259	      0.00000000	    -18.97822351	     11.83513590	      0.93390320
      1.13000000	     -2.10252470	    -11.90957848	    -11.38868503	      2.63453731	      0.85849085	     -0.10438126	     22.74838759	     18.10320281	     -0.45124852	     46.12721608	      0.80507180	     17.71765180	     -6.17041046	      0.00000000	     -0.55813566	    -10.67807250	     -3.32765304	     95.05593480	      1.65903904	    -14.98753903	    -18.18491891	      0.00000000	    -18.83790845	     11.86387616	      1.44008313
      1.13500000	     -2.10020182	    -11.81426909	    -11.07152013	      2.64725262	      0.85757989	     -0.10423169	     22.00836722	     17.98841204	     -0.16755040	     46.52246408	      0.81197017	     18.59038089	     -6.46804307	      0.00000000	      1.32036255	    -10.63870690	     -2.59029575	     96.93943671	      1.69191235	    -13.92886390	    -18.19752301	      0.00000000	    -18.82150925	     11.88988773	      1.83852993
      1.14000000	     -1.99880647	    -11.57044022	    -10.63205221	      2.65930056	      0.85702620	     -0.10422501	     21.17934994	     17.63967301	     -0.22368888	     46.82960520	      0.81733080	     19.40800423	     -6.83666493	      0.00000000	      3.25600009	    -10.40081938	     -1.79852027	     98.58851330	      1.72069416	    -13.30181604	    -18.24222626	      0.00000000	    -18.97015395	     11.72250144	      2.20295052
